<?xml version="1.0" encoding="UTF-8" standalone="no"?>
<!DOCTYPE svg PUBLIC "-//W3C//DTD SVG 1.1//EN" "http://www.w3.org/Graphics/SVG/1.1/DTD/svg11.dtd">
<svg version="1.1" xmlns="http://www.w3.org/2000/svg" xmlns:xlink="http://www.w3.org/1999/xlink" preserveAspectRatio="xMidYMid meet" viewBox="0 0 640 640" width="640" height="640"><defs><path d="M399.94 444.16C388.24 437.41 378.75 419.29 378.75 403.7C378.75 365.18 378.75 57.06 378.75 18.55C378.75 2.96 388.24 -4.21 399.94 2.55C413.74 10.52 524.21 74.29 538.02 82.27C549.72 89.02 559.21 107.15 559.21 122.74C559.21 161.26 559.21 469.41 559.21 507.93C559.21 523.52 549.72 530.7 538.02 523.94C510.41 507.99 413.74 452.14 399.94 444.16Z" id="blW7W5FHm"></path><path d="M551.33 525.36L540.84 507.37L540.39 530.89L540.39 530.89L551.33 525.36Z" id="g6oyaeQiA"></path><path d="M386.68 1.1L384.64 15.95L376.6 6.39L376.6 6.39L386.68 1.1Z" id="b19iHd9Myx"></path><path d="M391.13 448.61C379.43 441.87 369.95 423.74 369.95 408.15C369.95 369.63 369.95 61.47 369.95 22.95C369.95 7.36 379.43 0.19 391.13 6.94C404.94 14.91 515.41 78.7 529.22 86.67C540.92 93.43 550.4 111.54 550.4 127.14C550.4 165.66 550.4 473.81 550.4 512.33C550.4 527.94 540.92 535.1 529.22 528.35C501.6 512.4 404.94 456.59 391.13 448.61Z" id="a1Wa3djEK5"></path><path d="M548.89 513.28C548.89 528.9 539.42 536.05 527.72 529.31C524.11 527.22 506.06 516.8 473.56 498.04L456.73 488.35C416.49 465.1 394.13 452.18 389.66 449.6C377.96 442.84 368.49 424.73 368.49 409.13C368.49 370.61 368.49 62.46 368.49 23.94C368.49 8.33 377.96 1.18 389.66 7.92C403.47 15.9 513.95 79.67 527.76 87.64C539.46 94.41 548.89 112.51 548.89 128.13C548.89 205.16 548.89 474.76 548.89 513.28Z" id="a1mrnjV62g"></path><path d="M538.97 499.33C538.97 508.76 532.35 512.61 524.16 507.88C521.29 506.22 506.92 497.93 481.05 483.01L477.21 480.81L475.93 480.05L466.6 474.68L439.59 459.1L439.59 459.1L428.39 452.63L423.88 450.07C405.52 439.48 395.32 433.59 393.28 432.41C385.1 427.69 378.47 416.19 378.47 406.72C378.47 369.2 378.47 69.05 378.47 31.53C378.47 22.07 385.1 18.24 393.28 22.96C396.87 25.04 414.85 35.42 447.19 54.09C447.19 54.18 447.19 54.24 447.19 54.25C447.19 61.61 452.31 70.55 458.71 74.23C465.11 77.9 470.23 74.92 470.23 67.57C470.23 67.57 470.23 67.46 470.23 67.4C475.63 70.52 518.77 95.44 524.16 98.56C532.35 103.26 538.97 114.75 538.97 124.16C538.97 199.19 538.97 461.81 538.97 499.33Z" id="a3GHdLWLK"></path><path d="M461.81 63.2C463.53 66.17 463.53 69.37 461.82 70.35C460.11 71.34 457.34 69.74 455.63 66.78C453.92 63.81 453.92 60.61 455.62 59.62C457.33 58.64 460.1 60.24 461.81 63.2Z" id="a1QbDb6crd"></path><path d="M456.87 63.92C456.87 62.76 457.69 62.28 458.71 62.87C459.81 63.57 460.5 64.75 460.57 66.05C460.57 67.21 459.72 67.69 458.71 67.11C457.62 66.41 456.94 65.22 456.87 63.92Z" id="aNg75jy"></path><path d="M554.53 178.8C553.41 179.46 552.5 178.8 552.5 177.27C552.5 175.62 552.5 162.49 552.5 160.84C552.54 159.32 553.29 157.9 554.53 157C554.53 157 554.53 157 554.53 157C555.66 156.35 556.57 157 556.57 158.55C556.57 160.2 556.57 173.33 556.57 174.98C556.53 176.5 555.77 177.92 554.53 178.8C554.53 178.8 554.53 178.8 554.53 178.8Z" id="a9olsk799"></path><path d="M554.53 205.72C553.41 206.36 552.5 205.72 552.5 204.17C552.5 202.53 552.5 189.39 552.5 187.75C552.52 186.2 553.28 184.75 554.53 183.85C554.53 183.85 554.53 183.85 554.53 183.85C555.66 183.21 556.57 183.85 556.57 185.4C556.57 187.04 556.57 200.18 556.57 201.82C556.55 203.37 555.79 204.82 554.53 205.72C554.53 205.72 554.53 205.72 554.53 205.72Z" id="a2IfdKsKVk"></path><path d="M404.44 413.18C398.81 409.93 394.2 401.19 394.2 393.68C394.2 373.51 394.2 212.17 394.2 192C394.2 184.47 398.78 181.02 404.44 184.32C415.3 190.59 502.19 240.77 513.05 247.04C518.69 250.3 523.29 259.03 523.29 266.56C523.29 286.73 523.29 448.12 523.29 468.29C523.29 475.7 518.66 479.16 513.05 475.9C491.33 463.36 415.3 419.46 404.44 413.18Z" id="f2SGAyeEg6"></path><path d="M446.29 238.44C454.27 252.25 454.27 267.19 446.3 271.79C438.32 276.4 425.38 268.93 417.41 255.11C409.43 241.3 409.43 226.36 417.41 221.76C425.38 217.15 438.32 224.62 446.29 238.44Z" id="a5NA3V0igZ"></path><path d="M464.64 262.99L464.64 253.16L506.65 277.41L506.65 287.24L506.65 287.24L464.64 262.99Z" id="d5l9dNzWGx"></path><path d="M464.64 280.68L464.64 270.85L496.96 289.51L496.96 299.33L496.96 299.33L464.64 280.68Z" id="b28kqsyqyf"></path><path d="M411.43 289.01L411.43 279.19L506.65 334.16L506.65 343.99L506.65 343.99L411.43 289.01Z" id="b1OCZVRbnB"></path><path d="M411.43 306.7L411.43 296.87L484.67 339.16L484.67 348.99L484.67 348.99L411.43 306.7Z" id="c4obd7oTCt"></path><path d="M411.1 324.2L411.1 314.37L506.32 369.34L506.32 379.17L506.32 379.17L411.1 324.2Z" id="bkY5wwFCF"></path><path d="M411.1 341.89L411.1 332.06L484.35 374.35L484.35 384.18L484.35 384.18L411.1 341.89Z" id="b2Qbryu6Af"></path><path d="M411.1 359.58L411.1 349.75L506.32 404.72L506.32 414.55L506.32 414.55L411.1 359.58Z" id="as3Z2NVcn"></path><path d="M410.25 394.46L410.25 384.64L505.47 439.6L505.47 449.43L505.47 449.43L410.25 394.46Z" id="g2tNIPekZ7"></path><path d="M411.1 377.27L411.1 367.44L484.35 409.73L484.35 419.56L484.35 419.56L411.1 377.27Z" id="gBVKS6wGI"></path><path d="M424.23 173.25C423.32 172.64 422.73 171.66 422.6 170.57C422.15 165.24 419.87 138.58 415.77 90.6C412.54 111.19 410.75 122.63 410.39 124.92C410.27 125.77 409.56 126.05 408.74 125.58C407.44 124.83 396.98 118.78 395.67 118.03C394.69 117.38 394.07 116.3 394.01 115.12C394.01 114.06 394.76 113.63 395.69 114.15C396.46 114.6 400.35 116.84 407.33 120.88C411.63 93.36 414.01 78.07 414.49 75.01C414.62 74.14 415.37 73.87 416.19 74.38C417.08 75 417.67 75.97 417.8 77.04C418.25 82.3 420.49 108.56 424.51 155.84C428.35 127.53 430.49 111.8 430.91 108.66C431.03 107.79 431.71 107.49 432.51 107.93C433.42 108.5 434.03 109.43 434.2 110.49C434.71 113.56 437.27 128.89 441.88 156.48C446.37 120.38 448.86 100.33 449.36 96.32C449.46 95.42 450.18 95.12 451.01 95.59C451.01 95.59 451.01 95.59 451.01 95.59C451.91 96.16 452.51 97.1 452.67 98.15C453.26 103.35 456.23 129.34 461.56 176.13C465.98 153.09 468.44 140.29 468.93 137.73C469.08 136.93 469.75 136.68 470.54 137.1C470.54 137.1 470.54 137.1 470.54 137.1C471.38 137.66 471.96 138.52 472.17 139.51C472.67 142.08 475.17 154.97 479.67 178.16C483.7 143.25 485.94 123.85 486.39 119.97C486.49 119.09 487.18 118.76 488.01 119.22C488.93 119.78 489.55 120.72 489.7 121.78C490.25 125.88 493 146.36 497.96 183.22C501.43 167.09 503.36 158.13 503.74 156.34C503.9 155.57 504.54 155.32 505.29 155.71C506.14 156.22 506.74 157.05 506.97 158.02C507.34 159.55 509.2 167.2 512.55 180.97L524.54 187.7C524.54 187.7 524.54 187.7 524.54 187.7C525.53 188.34 526.15 189.41 526.22 190.58C526.22 191.65 525.5 192.1 524.57 191.59C523.69 191.1 519.28 188.62 511.35 184.17C511.35 184.17 511.35 184.17 511.35 184.17C510.55 183.64 509.98 182.83 509.75 181.9C509.48 180.79 508.12 175.24 505.69 165.26C501.9 182.92 499.8 192.74 499.38 194.7C499.21 195.51 498.51 195.78 497.7 195.25C496.83 194.66 496.24 193.73 496.09 192.69C495.57 188.83 492.97 169.51 488.29 134.75C484.45 168.04 482.32 186.53 481.89 190.23C481.79 191.09 481.14 191.42 480.33 191.01C479.43 190.48 478.8 189.59 478.6 188.56C478.09 185.86 475.49 172.35 470.81 148.04C466.09 172.55 463.47 186.17 462.95 188.89C462.78 189.72 462.05 189.95 461.25 189.47C460.38 188.87 459.8 187.94 459.64 186.91C459.07 181.9 456.22 156.87 451.1 111.82C446.8 146.25 444.41 165.38 443.93 169.2C443.83 170.07 443.15 170.39 442.33 169.96C441.43 169.38 440.81 168.45 440.63 167.4C440.12 164.3 437.56 148.83 432.95 120.99C428.72 151.9 426.38 169.07 425.91 172.51C425.77 173.43 425.06 173.72 424.23 173.25C424.23 173.25 424.23 173.25 424.23 173.25Z" id="b1r2w3pAM"></path><path d="M442.83 129.82C445.5 125.52 465.96 122.69 472.68 140.06C475.24 146.62 474.84 163.42 476.98 173.98C479.12 184.54 484.13 190.5 485.94 199.07C487.74 207.63 484.8 221.96 464.18 224.5C443.56 227.03 427.69 219.8 422.82 213.22C417.96 206.64 417.84 192.67 422.91 185.16C427.98 177.66 431.81 171.55 431.69 161.78C433.92 155.39 440.6 136.21 442.83 129.82Z" id="b1bZvvt1KG"></path><path d="M431.6 130.68C423.07 138.28 423.78 148.6 425.02 153.5C426.27 158.4 428.75 165.02 432.61 165.36C436.48 165.71 456.33 126.84 456.33 126.84C451.39 127.6 440.97 122.39 431.6 130.68Z" id="beZi6yYtW"></path><path d="M461.52 187.24C461.52 187.24 468.26 189.72 470.05 191.22C470.05 191.22 460.72 210.12 455.07 212.71C455.07 212.71 431.87 208.7 430.66 199.91C429.54 191.88 435.67 185.65 438.04 183.48C439.65 183.32 441.27 183.28 442.88 183.35C442.93 182.52 443.34 175.86 443.39 175.03C451.07 172.65 462.22 168.82 462.22 168.82C462.08 172.5 461.21 185.98 461.52 187.24Z" id="azU7JWPe9"></path><path d="M418.1 202.19C418.04 202.23 416.88 246.22 414.71 250.2C414.71 250.2 414.71 250.2 414.71 250.2C409.23 259.56 394.66 275.37 394.3 277.15C393.23 282.48 396.33 277.7 401.33 277.15C404.15 276.8 420.67 260.07 424.37 256.26C424.39 256.27 424.58 256.38 424.6 256.4C424.6 256.24 424.6 256.1 424.67 255.96C424.71 255.91 425.1 255.51 425.15 255.46C425.29 254.28 425.33 253.09 425.27 251.9C432.14 204.07 423.69 200.88 420.72 201.24C420.62 200.77 418.16 202.15 418.1 202.19Z" id="a2lh025LX"></path><path d="M416.97 208L416.1 229.2C415.27 239.22 414.8 244.79 414.71 245.9C414.71 245.9 414.98 248.14 412.52 252.06C412.52 252.06 396.93 272.24 396.93 272.24C397.32 272.57 399.3 274.21 402.87 277.17L416.4 266.06L425.36 206.21L420.65 200.38L416.97 208Z" id="bkJTG2WDe"></path><path d="M475.66 194.87C476.54 197.95 478.45 212.47 474.28 223.51C470.11 234.56 467.29 241.59 464.9 246.34C464.9 246.34 444.03 255.3 427.21 244.85C427.21 244.85 426.06 233.02 425.93 226.69C410.41 213.15 423.68 196.44 436.83 183.48C438.4 183.31 439.98 183.29 441.56 183.41C441.56 183.41 429.84 197.29 437.99 205.17C455.51 199.88 458.98 192 464.58 188.92C469.39 189.66 474.91 192.23 475.66 194.87Z" id="a3Vz9Aojo9"></path><path d="M430.16 147.56C431.9 136.54 439.86 128.2 451.23 128.87C463.27 129.53 472.51 139.83 471.85 151.88C471.47 158.73 467.91 165 462.22 168.82C461.82 170.49 461.24 172.11 460.47 173.64C456.44 178.33 445.73 181.32 442.2 181.32C439.16 181.32 436.52 178.51 433.66 173.77C427.7 163.94 429.21 153.01 430.16 147.56C430.16 147.56 430.16 147.56 430.16 147.56Z" id="bDmJsn9VD"></path><path d="M471.45 140.71C472.93 146.1 474.87 156.39 473.02 160.72C472.95 160.93 472.56 161.97 471.87 163.84C466.08 166.83 462.86 168.49 462.22 168.82C462.22 168.82 457.72 165.07 459.11 154.06C459.07 152.57 458.6 151.12 457.75 149.89C457.17 148.84 456.74 147.72 456.47 146.56C455.5 143.49 453.03 141.44 450.21 139.79C443.02 135.76 432.5 139.24 431.01 140.7C435.83 130.74 445.48 127.26 454.75 129.08C462.72 130.64 469.29 132.92 471.45 140.71Z" id="b4fR8Ev9A"></path><path d="M474.01 376.7C477.05 386.67 478.66 397.01 478.8 407.42C478.72 416.04 476.47 430.66 473.92 444.2C473.62 446.34 472.13 457.08 469.45 476.39L458.79 470.22C459.04 455.82 459.18 447.82 459.21 446.22C458.66 438.18 457.87 426.32 457.36 418.73C456.52 406.39 454.31 386.73 453.67 381.89C453.03 377.05 451.47 368.45 450.71 358.85C449.96 349.25 446.35 300.54 446.35 300.54C446.3 301.46 445.9 308.76 445.85 309.67C445.85 309.67 445.38 324.49 443.29 342.75C443.29 342.75 440.4 369.14 440.4 369.14C440.4 369.14 444.1 375.92 444.57 380.93C444.95 384.88 449.46 416.12 446.76 432.01C446.49 433.94 445.18 443.59 442.8 460.97L430 453.62C429.01 441.22 428.46 434.33 428.35 432.95C426.16 417.46 421.54 384.61 420.83 380.34C419.9 374.72 419.14 371.96 418.06 354.29C416.99 336.63 417.38 298.27 419.16 284.35C420.94 270.44 426.07 250.23 426.07 250.23C430.92 252.5 436.16 253.81 441.51 254.07C450.47 254.53 464.87 251.8 464.87 251.8C467.38 256.19 470.13 260.44 473.1 264.54C477.13 270.08 484.89 282.28 483.05 303.59C481.77 317.52 475.82 362.08 474.01 376.7Z" id="d3nN0Bc2Jb"></path><path d="M464.9 246.34C472.08 260.78 476.08 268.81 476.88 270.41C476.88 270.41 495.17 297.18 476.21 365.99C476.57 368.11 479.41 385.09 479.77 387.21C479.77 387.21 443.93 410.25 419.9 387.21C419.9 387.21 411.57 323.62 416 294.3C418.46 277.43 422.19 260.78 427.17 244.48C427.17 244.48 433.05 250.97 463.3 246.68" id="b27kGXC6wV"></path><path d="M416.97 208C417.38 207.59 420.62 204.35 421.03 203.94C421.03 203.94 430.98 188.89 436.88 183.48C432.9 188.38 419.14 186.37 416.97 208Z" id="c2R29hBJK"></path><path d="M428.39 222.35C432.92 243.2 424.24 368.14 424.24 368.14C424.24 368.14 414 361.65 414 356.45C414 351.26 417.84 216.4 417.84 210.01C417.84 203.62 429.06 192.28 436.67 183.42C438.69 182.7 440.82 182.35 442.96 182.39C442.96 182.86 442.96 182.92 442.89 183.41C442.51 183.44 442.29 183.41 441.61 183.41C437.03 192.26 424.97 206.71 428.39 222.35Z" id="d6y9puwRZ"></path><path d="M403.51 274.07L432.92 291.06L391.95 314.87L362.55 297.88L362.55 297.88L403.51 274.07Z" id="aVaJNJ2jB"></path><path d="M390.95 278.2C390.16 278.9 389.3 279.54 388.39 280.09C387.98 280.31 387.58 280.56 387.11 280.74C386.48 280.96 385.92 281.34 385.47 281.83C385.01 282.5 384.75 283.28 384.74 284.1C384.54 285.07 384.49 286.07 384.6 287.07C384.96 288.54 386.48 288.42 387.29 287.4C387.7 286.89 387.93 286.26 387.97 285.61C388.01 284.34 388.65 283.18 389.7 282.47C390.68 281.86 398.51 277 399.49 276.39C399.23 275.95 398.72 275.71 398.22 275.81C395.66 276.4 393.1 276.6 390.95 278.2Z" id="cgQyVY9Jf"></path><path d="M477.81 221.52C477.81 221.52 477.48 258.27 478.82 270.16C478.82 270.16 497.13 316.89 482.19 364.16C479.99 366.72 477.96 371.9 459.15 374.08C447.92 374.08 443.85 372.36 443.85 372.36C443.85 372.36 448.19 293.09 441.89 223.49C441.89 204.29 458.41 206.52 461.47 185.24C476.04 192.05 476.06 194.2 476.06 194.2C476.41 199.66 477.46 216.05 477.81 221.52Z" id="fXH8KtpdJ"></path><path d="M461.34 204.86C461.3 206.42 461 218.88 460.97 220.44C460.97 220.44 461.84 240.31 464.14 246.36C461.82 247.96 450.21 255.93 429.32 270.28C433.88 275.59 436.41 278.54 436.92 279.13C436.92 279.13 473.7 262.14 476.6 259.46C476.6 259.46 476.6 225.6 477.04 216.63C478.98 199.68 478.49 192.9 470.41 193.79C462.39 194.69 463.15 202.65 461.34 204.86Z" id="c1EvEDRCXA"></path><path d="M466.7 195.37C457.98 207.69 463.77 241.04 464.95 244.6C462.72 246.02 451.57 253.12 431.51 265.91C431.51 265.91 431.51 265.91 431.51 265.91C430.98 266.27 429.82 266.97 429.27 267.32C426.24 269.15 420.4 272.32 416.84 272.73C413.49 273.11 411.72 277.85 408.17 278.25C407.4 278.27 406.81 278.91 406.83 279.67C406.84 280.04 407 280.38 407.26 280.63C408.69 282.01 412.52 280.87 415.13 277.81C415.12 277.89 415.12 277.96 415.13 278.04C415.11 279.29 416 280.38 417.23 280.6C417.23 280.82 417.29 281.04 417.41 281.23C417.78 282.02 418.54 282.57 419.4 282.68C419.4 282.68 419.4 282.68 419.4 282.68C419.77 283.85 420.93 284.6 422.16 284.45C422.92 284.41 423.64 284.08 424.17 283.53C427.02 282.44 429.54 280.62 431.48 278.26C433.2 276.49 435.01 274.8 436.9 273.22C445.98 269.31 473.19 257.69 474.41 256.04C476.17 253.59 478.11 210.36 476.17 202.41C474.82 196.84 470.45 198.63 466.7 195.37Z" id="c1eq02luok"></path><path d="M459.99 202.18C459.96 203.73 459.66 216.18 459.62 217.74C459.62 217.74 460.49 237.62 462.78 243.67C460.46 245.27 448.86 253.24 427.98 267.6C432.54 272.9 435.07 275.85 435.57 276.44C435.57 276.44 472.36 259.46 475.19 256.77C475.19 256.77 478.73 226.38 479.22 217.42C481.22 200.5 477.11 190.21 469.07 191.1C461.04 192 461.81 199.96 459.99 202.18Z" id="cjImF2ncK"></path><path d="M282.98 577.1C282.98 597.29 254.64 613.66 219.67 613.66C184.71 613.66 156.36 597.29 156.36 577.1C156.36 556.91 184.71 540.54 219.67 540.54C254.64 540.54 282.98 556.91 282.98 577.1Z" id="c94zzU8Mk"></path><path d="M174.57 306.05C173.86 312.2 166.52 338.76 168.09 347.87C169.66 356.97 194.76 372.19 194.76 372.19C195 371.15 196.16 365.95 198.25 356.61L184.35 343.04L188.1 317.25C180.88 311.27 176.37 307.54 174.57 306.05Z" id="kBmcZiDzh"></path><path d="M193.98 279.87C190.4 278.32 183.74 277.98 180.01 284.1C176.27 290.21 172.48 311.18 172.13 314.82C172.13 314.82 177.32 321.97 185.09 320.78C186.87 312.6 192.2 288.05 193.98 279.87Z" id="b2BwcZeEJf"></path><path d="M238.89 574.03C242.79 574.14 264.03 565.07 266.92 572.68C269.48 579.38 260.25 585.56 255.33 586.76C244.61 589.32 236.67 594.71 232.36 595.62C229.16 596.3 225 596.75 222.44 594.23C219.38 591.21 219.64 580.01 222.64 576C228.11 577.5 233.94 576.8 238.89 574.03Z" id="byYRaaZqa"></path><path d="M255.33 584.93C259.46 583.94 266.55 579.43 267.26 574.05C268.21 580.21 259.92 585.68 255.33 586.78C244.61 589.34 236.67 594.73 232.36 595.64C229.16 596.31 225 596.76 222.44 594.24C221.78 593.51 221.3 592.63 221.03 591.68C224.77 594.78 229.16 594.46 232.36 593.78C236.67 592.88 244.61 587.53 255.33 584.93Z" id="b4DKFYhcCP"></path><path d="M204.3 559.24C208.21 559.35 229.44 550.28 232.33 557.96C234.89 564.65 225.66 570.83 220.75 572.04C210.02 574.6 202.08 579.98 197.78 580.89C194.57 581.57 190.41 582.02 187.86 579.49C184.79 576.39 185.06 565.19 188.05 561.19C193.52 562.71 199.35 562.01 204.3 559.24Z" id="b1OW0jMvT"></path><path d="M220.89 569.47C225.01 568.47 232.1 563.96 232.82 558.59C233.78 564.75 225.47 570.21 220.89 571.32C210.16 573.88 202.23 579.26 197.93 580.17C194.71 580.85 190.55 581.3 188.01 578.76C187.34 578.04 186.85 577.16 186.6 576.2C190.32 579.3 194.71 579 197.93 578.32C202.23 577.41 210.16 572.07 220.89 569.47Z" id="desiGmGkL"></path><path d="M192.68 479.6C192.68 479.6 191.22 459.52 190.49 440.5C189.66 418.91 182.17 399.9 188.07 382.67C194.73 384.15 248.04 396.01 254.71 397.49C254.71 397.49 250.68 483.58 249.78 494C249.3 502.11 248.31 510.18 246.81 518.17C243.76 534.89 238.82 574.64 238.82 574.64C231.77 578.74 222.53 576.47 222.53 576.47C222.53 576.47 223.04 526.2 223.49 514.15C224.04 499.44 224.49 500.57 224.49 500.57C224.34 498.13 223.61 485.92 222.28 463.95C221.42 453.01 220.95 446.94 220.85 445.72C220.85 445.72 219.01 459.1 217.8 471.04C216.76 481.46 214.25 490.88 211.4 510.26C208.97 527.08 205 560.87 205 560.87C197.96 564.97 188.36 561.57 188.36 561.57C188.36 561.57 185.87 517.45 187.78 502.86C188.69 494.97 190.34 487.19 192.68 479.6Z" id="avBZc7xkA"></path><path d="M207 280.23C207.54 277.61 207.93 274.96 208.15 272.29C207.56 270.82 207.07 269.25 207.07 269.25C200.67 265.32 198.68 258.43 197.84 250.42C196.42 236.71 203.81 224.7 217.52 223.27C230.41 221.99 239.9 230.95 242.42 243.43C243.79 249.56 246.5 261.17 242.83 271.27C240.78 276.92 238.14 281.4 235.49 282.27C232.94 282.19 230.4 281.97 227.88 281.6C227.88 281.6 227.88 281.6 227.88 281.6C227.88 281.6 227.2 285.44 226.73 287.85C226.73 287.85 226.44 291.58 231.31 294.59C231.31 294.59 223.95 303.74 215.95 303.14C215.95 303.14 198.99 297.72 196.52 292.54C193.79 286.85 194.02 280.06 197.5 280.23C202.62 280.49 206.36 281.79 207 280.23Z" id="a2MVsjZ8Pu"></path><path d="M216.55 291.78C226.09 294.77 226.93 290.92 226.93 290.92C226.93 290.92 240.91 297.32 245.45 300.45C251.17 304.46 253.71 316.03 254.49 335.56C255.37 358.17 255.45 391.71 254.71 397.49C254.71 397.49 244.02 408.14 230.39 407.01C216.76 405.89 193.69 393.79 188.15 384.44C188.3 364.62 190.62 361.4 187.4 349.98C180.06 323.84 176.19 313.14 179.72 295.77C182.67 281.45 186.79 279.67 192.45 279.81C196.6 279.98 200.74 280.37 204.85 280.99C203.44 284.49 207.01 288.78 216.55 291.78Z" id="a5FwlGKRW5"></path><path d="M260.63 344.14C257.06 329.95 255.14 317.13 252.48 309.08C249.34 299.58 246.08 298.06 241.45 296.22C236.02 294.04 231.36 298.62 233.16 310.71C235.3 325.02 238.11 335.03 243.4 351.99C244.8 356.4 247.92 364.26 252.62 368.05C258.41 372.74 267.14 372.53 280.33 369.25C285.96 367.85 292.13 364.48 302.78 359.51C305.64 358.23 307.9 357.3 313.34 354.74C318.78 352.18 324.54 347.92 327.42 343.76C330.3 339.6 330.68 337.64 330.09 336.69C329.36 335.5 328.05 335.76 326.52 337.51C324.3 340.47 321.56 343 318.44 344.99C318.44 344.99 321.98 341.32 323.9 338.94C325.63 336.83 327.06 334.5 328.15 332.01C329.16 329.57 327.08 326.28 325.49 328.01C323.9 329.74 323.15 331.51 320.24 334.99C318.71 336.84 316.96 338.5 315.03 339.94C316.83 337.51 318.44 334.95 319.83 332.26C321.68 328.5 321.65 326.57 321.57 325.3C321.5 324.03 319.71 322.52 318.03 324.92C316.51 327.08 315.47 330.46 312 334.13C309.44 336.79 307.25 338.33 307.19 337.59C307.12 336.84 308.74 335.39 309.66 332.29C310.58 329.19 309.66 325.89 307.94 325.56C306.23 325.22 306.56 325.3 305.18 328.19C303.8 331.08 301.7 333.24 300.06 337.47C298.64 341.2 298 342.71 295.44 345.42C292.76 348.31 286.67 351.56 275.99 354.25C264.77 357.08 262.13 350 260.63 344.14Z" id="a1AtlvZnlo"></path><path d="M253.4 307.9C256.7 319.26 259.03 328.59 259.03 328.59C256.06 332.87 251.57 335.85 246.48 336.92C237.52 339.1 234.28 334.81 234.28 334.81C234.28 334.81 231.72 322.91 230.23 314.8C228.75 306.7 228.02 295.68 237.3 294.27C244.8 293.17 250.1 296.55 253.4 307.9Z" id="a4jM0cmGE"></path><path d="M228.17 219.99C209.66 217.36 197.76 229.25 196.39 242.15C195.11 254.48 202.68 267.28 208.15 272.36C210.83 273.32 216.59 273.87 224.15 270.43C224.46 267.07 224.57 263.7 224.5 260.33C224.5 260.33 215.48 241.34 241.98 241.68C239.22 237.34 253.84 223.67 228.17 219.99Z" id="a2TyxohLhh"></path><path d="M102.89 445.91C102.89 455.7 89.14 463.64 72.19 463.64C55.24 463.64 41.5 455.7 41.5 445.91C41.5 436.12 55.24 428.19 72.19 428.19C89.14 428.19 102.89 436.12 102.89 445.91Z" id="aAlCC0yZd"></path><path d="M107.26 442.62C107.26 452.41 93.52 460.35 76.57 460.35C59.62 460.35 45.88 452.41 45.88 442.62C45.88 432.83 59.62 424.9 76.57 424.9C93.52 424.9 107.26 432.83 107.26 442.62Z" id="bzJVdPLjt"></path><path d="M46.22 443.85L107.19 443.85L117.67 382.48L35.48 382.03L35.48 382.03L46.22 443.85Z" id="ac0creEtU"></path><path d="M117.7 381.26C117.7 394.37 99.28 405 76.57 405C53.86 405 35.44 394.37 35.44 381.26C35.44 368.15 53.86 357.52 76.57 357.52C99.28 357.52 117.7 368.15 117.7 381.26Z" id="j1OPB35wye"></path><path d="M50.11 393.52C44.12 390.05 40.68 385.59 40.68 381.26C40.68 376.93 44.12 372.47 50.11 369.01C57.09 364.98 66.5 362.75 76.57 362.75C86.64 362.75 96.05 364.98 103.04 369.01C109.03 372.47 112.46 376.93 112.46 381.26C112.46 385.59 109.03 390.05 103.04 393.52C96.05 397.56 86.66 399.77 76.57 399.77C66.5 399.77 57.1 397.56 50.11 393.52Z" id="cn0xWZc8f"></path><path d="M76.57 294.72C55.95 312.87 59.21 362.64 59.21 362.64C60.39 364.77 66.26 375.44 76.83 394.64C76.83 394.64 76.83 394.64 76.83 394.64C79.13 394.71 94.27 362.56 94.27 362.56C90.73 348.99 93.47 312.44 76.57 294.72Z" id="aU7dBPxPl"></path><path d="M32.58 311.97C32.58 311.97 26.36 394.24 76.83 394.6C67.98 378.07 67.44 334.54 32.58 311.97Z" id="a3f5JPnEW6"></path><path d="M119.01 314.47C119.01 314.47 127.04 394.24 76.57 394.6C85.06 378.57 85.03 335.72 119.01 314.47Z" id="ciC5B2zBr"></path><path d="M471.32 622.3C471.32 632.07 457.6 640 440.67 640C423.73 640 410.01 632.07 410.01 622.3C410.01 612.52 423.73 604.6 440.67 604.6C457.6 604.6 471.32 612.52 471.32 622.3Z" id="aEcCnipSK"></path><path d="M475.88 621.16C475.88 630.94 462.15 638.86 445.22 638.86C428.29 638.86 414.57 630.94 414.57 621.16C414.57 611.38 428.29 603.46 445.22 603.46C462.15 603.46 475.88 611.38 475.88 621.16Z" id="eiHtR12lF"></path><path d="M414.57 620.88L414.57 611.99L424.31 615.26L414.57 620.88Z" id="b1AmjQTWpI"></path><path d="M475.85 620.6L464.63 618.39L475.85 612.62L475.85 612.62L475.85 620.6Z" id="b64WI8iId"></path><path d="M475.88 612.06C475.88 621.83 462.15 629.76 445.22 629.76C428.29 629.76 414.57 621.83 414.57 612.06C414.57 602.28 428.29 594.36 445.22 594.36C462.15 594.36 475.88 602.28 475.88 612.06Z" id="a1oVYjwPsy"></path><path d="M421.8 623.5L465.02 598.55L468.34 600.47L425.13 625.42L425.13 625.42L421.8 623.5Z" id="ayU6fT5aP"></path><path d="M421.8 632.59L424.82 634.38L425.24 634.59L425.24 625.42L421.8 623.5L421.8 623.5L421.8 632.59Z" id="anqmIZrCQ"></path><path d="M63.64 590.23C63.64 600.01 49.92 607.94 32.99 607.94C16.05 607.94 2.33 600.01 2.33 590.23C2.33 580.46 16.05 572.53 32.99 572.53C49.92 572.53 63.64 580.46 63.64 590.23Z" id="dBMaeuUrZ"></path><path d="M68.2 589.09C68.2 598.87 54.47 606.8 37.54 606.8C20.61 606.8 6.89 598.87 6.89 589.09C6.89 579.32 20.61 571.39 37.54 571.39C54.47 571.39 68.2 579.32 68.2 589.09Z" id="bAaUbBDs"></path><path d="M6.89 588.8L6.89 579.9L16.63 583.18L6.89 588.8Z" id="b97uC8wMz"></path><path d="M68.17 588.53L56.95 586.32L68.17 580.56L68.17 580.56L68.17 588.53Z" id="a52L1nHmuk"></path><path d="M68.2 579.99C68.2 589.77 54.47 597.7 37.54 597.7C20.61 597.7 6.89 589.77 6.89 579.99C6.89 570.22 20.61 562.29 37.54 562.29C54.47 562.29 68.2 570.22 68.2 579.99Z" id="bstBQNlrN"></path><path d="M14.13 591.44L57.34 566.49L60.67 568.41L17.45 593.36L17.45 593.36L14.13 591.44Z" id="a223zpaDPr"></path><path d="M14.13 600.52L17.14 602.3L17.56 602.52L17.56 593.36L14.13 591.44L14.13 591.44L14.13 600.52Z" id="gp9EW2en6"></path><path d="M633.13 572.57C633.13 582.35 619.4 590.27 602.47 590.27C585.54 590.27 571.81 582.35 571.81 572.57C571.81 562.79 585.54 554.87 602.47 554.87C619.4 554.87 633.13 562.79 633.13 572.57Z" id="d1zZ2gDoiZ"></path><path d="M637.67 571.43C637.67 581.21 623.95 589.13 607.01 589.13C590.08 589.13 576.36 581.21 576.36 571.43C576.36 561.65 590.08 553.73 607.01 553.73C623.95 553.73 637.67 561.65 637.67 571.43Z" id="a1l8YudTxD"></path><path d="M576.37 571.15C576.37 571.07 576.37 562.25 576.37 562.25C577.02 562.47 580.27 563.56 586.12 565.53C580.92 568.53 577.67 570.4 576.37 571.15Z" id="fqaROkhKl"></path><path d="M637.66 570.87L626.43 568.65L637.66 562.89L637.66 562.89L637.66 570.87Z" id="b4ZOZpprH"></path><path d="M637.67 562.33C637.67 572.11 623.95 580.03 607.01 580.03C590.08 580.03 576.36 572.11 576.36 562.33C576.36 552.55 590.08 544.63 607.01 544.63C623.95 544.63 637.67 552.55 637.67 562.33Z" id="bk3om4ytR"></path><path d="M583.6 573.77L626.82 548.83L630.14 550.75L586.93 575.69L586.93 575.69L583.6 573.77Z" id="ajJRPfsS"></path><path d="M583.6 582.86L586.62 584.64L587.05 584.86L587.05 575.69L583.6 573.77L583.6 573.77L583.6 582.86Z" id="b8oVzy6Njd"></path></defs><g><g><g><use xlink:href="#blW7W5FHm" opacity="1" fill="#b1b4c4" fill-opacity="1"></use><g><use xlink:href="#blW7W5FHm" opacity="1" fill-opacity="0" stroke="#000000" stroke-width="1" stroke-opacity="0"></use></g></g><g><use xlink:href="#g6oyaeQiA" opacity="1" fill="#b1b4c4" fill-opacity="1"></use><g><use xlink:href="#g6oyaeQiA" opacity="1" fill-opacity="0" stroke="#000000" stroke-width="1" stroke-opacity="0"></use></g></g><g><use xlink:href="#b19iHd9Myx" opacity="1" fill="#b1b4c4" fill-opacity="1"></use><g><use xlink:href="#b19iHd9Myx" opacity="1" fill-opacity="0" stroke="#000000" stroke-width="1" stroke-opacity="0"></use></g></g><g><use xlink:href="#a1Wa3djEK5" opacity="1" fill="#616e84" fill-opacity="1"></use><g><use xlink:href="#a1Wa3djEK5" opacity="1" fill-opacity="0" stroke="#000000" stroke-width="1" stroke-opacity="0"></use></g></g><g><use xlink:href="#a1mrnjV62g" opacity="1" fill="#20232d" fill-opacity="1"></use><g><use xlink:href="#a1mrnjV62g" opacity="1" fill-opacity="0" stroke="#000000" stroke-width="1" stroke-opacity="0"></use></g></g><g><use xlink:href="#a3GHdLWLK" opacity="1" fill="#ffffff" fill-opacity="1"></use><g><use xlink:href="#a3GHdLWLK" opacity="1" fill-opacity="0" stroke="#000000" stroke-width="1" stroke-opacity="0"></use></g></g><g><use xlink:href="#a1QbDb6crd" opacity="1" fill="#2b303f" fill-opacity="1"></use><g><use xlink:href="#a1QbDb6crd" opacity="1" fill-opacity="0" stroke="#000000" stroke-width="1" stroke-opacity="0"></use></g></g><g><use xlink:href="#aNg75jy" opacity="1" fill="#ffffff" fill-opacity="1"></use><g><use xlink:href="#aNg75jy" opacity="1" fill-opacity="0" stroke="#000000" stroke-width="1" stroke-opacity="0"></use></g></g><g><use xlink:href="#a9olsk799" opacity="1" fill="#757b89" fill-opacity="1"></use><g><use xlink:href="#a9olsk799" opacity="1" fill-opacity="0" stroke="#000000" stroke-width="1" stroke-opacity="0"></use></g></g><g><use xlink:href="#a2IfdKsKVk" opacity="1" fill="#757b89" fill-opacity="1"></use><g><use xlink:href="#a2IfdKsKVk" opacity="1" fill-opacity="0" stroke="#000000" stroke-width="1" stroke-opacity="0"></use></g></g><g><use xlink:href="#f2SGAyeEg6" opacity="1" fill="#e9eaf2" fill-opacity="1"></use><g><use xlink:href="#f2SGAyeEg6" opacity="1" fill-opacity="0" stroke="#000000" stroke-width="1" stroke-opacity="0"></use></g></g><g><use xlink:href="#a5NA3V0igZ" opacity="1" fill="#ced0db" fill-opacity="1"></use><g><use xlink:href="#a5NA3V0igZ" opacity="1" fill-opacity="0" stroke="#000000" stroke-width="1" stroke-opacity="0"></use></g></g><g><use xlink:href="#d5l9dNzWGx" opacity="1" fill="#ced0db" fill-opacity="1"></use><g><use xlink:href="#d5l9dNzWGx" opacity="1" fill-opacity="0" stroke="#000000" stroke-width="1" stroke-opacity="0"></use></g></g><g><use xlink:href="#b28kqsyqyf" opacity="1" fill="#ced0db" fill-opacity="1"></use><g><use xlink:href="#b28kqsyqyf" opacity="1" fill-opacity="0" stroke="#000000" stroke-width="1" stroke-opacity="0"></use></g></g><g><use xlink:href="#b1OCZVRbnB" opacity="1" fill="#ced0db" fill-opacity="1"></use><g><use xlink:href="#b1OCZVRbnB" opacity="1" fill-opacity="0" stroke="#000000" stroke-width="1" stroke-opacity="0"></use></g></g><g><use xlink:href="#c4obd7oTCt" opacity="1" fill="#ced0db" fill-opacity="1"></use><g><use xlink:href="#c4obd7oTCt" opacity="1" fill-opacity="0" stroke="#000000" stroke-width="1" stroke-opacity="0"></use></g></g><g><use xlink:href="#bkY5wwFCF" opacity="1" fill="#ced0db" fill-opacity="1"></use><g><use xlink:href="#bkY5wwFCF" opacity="1" fill-opacity="0" stroke="#000000" stroke-width="1" stroke-opacity="0"></use></g></g><g><use xlink:href="#b2Qbryu6Af" opacity="1" fill="#ced0db" fill-opacity="1"></use><g><use xlink:href="#b2Qbryu6Af" opacity="1" fill-opacity="0" stroke="#000000" stroke-width="1" stroke-opacity="0"></use></g></g><g><use xlink:href="#as3Z2NVcn" opacity="1" fill="#ced0db" fill-opacity="1"></use><g><use xlink:href="#as3Z2NVcn" opacity="1" fill-opacity="0" stroke="#000000" stroke-width="1" stroke-opacity="0"></use></g></g><g><use xlink:href="#g2tNIPekZ7" opacity="1" fill="#ced0db" fill-opacity="1"></use><g><use xlink:href="#g2tNIPekZ7" opacity="1" fill-opacity="0" stroke="#000000" stroke-width="1" stroke-opacity="0"></use></g></g><g><use xlink:href="#gBVKS6wGI" opacity="1" fill="#ced0db" fill-opacity="1"></use><g><use xlink:href="#gBVKS6wGI" opacity="1" fill-opacity="0" stroke="#000000" stroke-width="1" stroke-opacity="0"></use></g></g><g><use xlink:href="#b1r2w3pAM" opacity="1" fill="#ced0db" fill-opacity="1"></use><g><use xlink:href="#b1r2w3pAM" opacity="1" fill-opacity="0" stroke="#000000" stroke-width="1" stroke-opacity="0"></use></g></g><g><use xlink:href="#b1bZvvt1KG" opacity="1" fill="#2b2a30" fill-opacity="1"></use><g><use xlink:href="#b1bZvvt1KG" opacity="1" fill-opacity="0" stroke="#000000" stroke-width="1" stroke-opacity="0"></use></g></g><g><use xlink:href="#beZi6yYtW" opacity="1" fill="#2b2a30" fill-opacity="1"></use><g><use xlink:href="#beZi6yYtW" opacity="1" fill-opacity="0" stroke="#000000" stroke-width="1" stroke-opacity="0"></use></g></g><g><use xlink:href="#azU7JWPe9" opacity="1" fill="#ffcea9" fill-opacity="1"></use><g><use xlink:href="#azU7JWPe9" opacity="1" fill-opacity="0" stroke="#000000" stroke-width="1" stroke-opacity="0"></use></g></g><g><use xlink:href="#a2lh025LX" opacity="1" fill="#ffcea9" fill-opacity="1"></use><g><use xlink:href="#a2lh025LX" opacity="1" fill-opacity="0" stroke="#000000" stroke-width="1" stroke-opacity="0"></use></g></g><g><use xlink:href="#bkJTG2WDe" opacity="1" fill="#ffffff" fill-opacity="1"></use><g><use xlink:href="#bkJTG2WDe" opacity="1" fill-opacity="0" stroke="#000000" stroke-width="1" stroke-opacity="0"></use></g></g><g><use xlink:href="#a3Vz9Aojo9" opacity="1" fill="#f4f4f4" fill-opacity="1"></use><g><use xlink:href="#a3Vz9Aojo9" opacity="1" fill-opacity="0" stroke="#000000" stroke-width="1" stroke-opacity="0"></use></g></g><g><use xlink:href="#bDmJsn9VD" opacity="1" fill="#ffcea9" fill-opacity="1"></use><g><use xlink:href="#bDmJsn9VD" opacity="1" fill-opacity="0" stroke="#000000" stroke-width="1" stroke-opacity="0"></use></g></g><g><use xlink:href="#b4fR8Ev9A" opacity="1" fill="#2b2a30" fill-opacity="1"></use><g><use xlink:href="#b4fR8Ev9A" opacity="1" fill-opacity="0" stroke="#000000" stroke-width="1" stroke-opacity="0"></use></g></g><g><use xlink:href="#d3nN0Bc2Jb" opacity="1" fill="#ffcea9" fill-opacity="1"></use><g><use xlink:href="#d3nN0Bc2Jb" opacity="1" fill-opacity="0" stroke="#000000" stroke-width="1" stroke-opacity="0"></use></g></g><g><use xlink:href="#b27kGXC6wV" opacity="1" fill="#e26161" fill-opacity="1"></use><g><use xlink:href="#b27kGXC6wV" opacity="1" fill-opacity="0" stroke="#000000" stroke-width="1" stroke-opacity="0"></use></g></g><g><use xlink:href="#c2R29hBJK" opacity="1" fill="#ffffff" fill-opacity="1"></use><g><use xlink:href="#c2R29hBJK" opacity="1" fill-opacity="0" stroke="#000000" stroke-width="1" stroke-opacity="0"></use></g></g><g><use xlink:href="#d6y9puwRZ" opacity="1" fill="#ffffff" fill-opacity="1"></use><g><use xlink:href="#d6y9puwRZ" opacity="1" fill-opacity="0" stroke="#000000" stroke-width="1" stroke-opacity="0"></use></g></g><g><use xlink:href="#aVaJNJ2jB" opacity="1" fill="#f4f4f4" fill-opacity="1"></use><g><use xlink:href="#aVaJNJ2jB" opacity="1" fill-opacity="0" stroke="#000000" stroke-width="1" stroke-opacity="0"></use></g></g><g><use xlink:href="#cgQyVY9Jf" opacity="1" fill="#ffcea9" fill-opacity="1"></use><g><use xlink:href="#cgQyVY9Jf" opacity="1" fill-opacity="0" stroke="#000000" stroke-width="1" stroke-opacity="0"></use></g></g><g><use xlink:href="#fXH8KtpdJ" opacity="1" fill="#ffffff" fill-opacity="1"></use><g><use xlink:href="#fXH8KtpdJ" opacity="1" fill-opacity="0" stroke="#000000" stroke-width="1" stroke-opacity="0"></use></g></g><g><use xlink:href="#c1EvEDRCXA" opacity="1" fill="#000000" fill-opacity="1"></use><g><use xlink:href="#c1EvEDRCXA" opacity="1" fill-opacity="0" stroke="#000000" stroke-width="1" stroke-opacity="0"></use></g></g><g><use xlink:href="#c1eq02luok" opacity="1" fill="#ffcea9" fill-opacity="1"></use><g><use xlink:href="#c1eq02luok" opacity="1" fill-opacity="0" stroke="#000000" stroke-width="1" stroke-opacity="0"></use></g></g><g><use xlink:href="#cjImF2ncK" opacity="1" fill="#ffffff" fill-opacity="1"></use><g><use xlink:href="#cjImF2ncK" opacity="1" fill-opacity="0" stroke="#000000" stroke-width="1" stroke-opacity="0"></use></g></g><g><use xlink:href="#c94zzU8Mk" opacity="1" fill="#d6d8e5" fill-opacity="1"></use><g><use xlink:href="#c94zzU8Mk" opacity="1" fill-opacity="0" stroke="#000000" stroke-width="1" stroke-opacity="0"></use></g></g><g><use xlink:href="#kBmcZiDzh" opacity="1" fill="#ffcea9" fill-opacity="1"></use><g><use xlink:href="#kBmcZiDzh" opacity="1" fill-opacity="0" stroke="#000000" stroke-width="1" stroke-opacity="0"></use></g></g><g><use xlink:href="#b2BwcZeEJf" opacity="1" fill="#ededed" fill-opacity="1"></use><g><use xlink:href="#b2BwcZeEJf" opacity="1" fill-opacity="0" stroke="#000000" stroke-width="1" stroke-opacity="0"></use></g></g><g><use xlink:href="#byYRaaZqa" opacity="1" fill="#004872" fill-opacity="1"></use><g><use xlink:href="#byYRaaZqa" opacity="1" fill-opacity="0" stroke="#000000" stroke-width="1" stroke-opacity="0"></use></g></g><g><use xlink:href="#b4DKFYhcCP" opacity="1" fill="#009ff9" fill-opacity="1"></use><g><use xlink:href="#b4DKFYhcCP" opacity="1" fill-opacity="0" stroke="#000000" stroke-width="1" stroke-opacity="0"></use></g></g><g><use xlink:href="#b1OW0jMvT" opacity="1" fill="#004872" fill-opacity="1"></use><g><use xlink:href="#b1OW0jMvT" opacity="1" fill-opacity="0" stroke="#000000" stroke-width="1" stroke-opacity="0"></use></g></g><g><use xlink:href="#desiGmGkL" opacity="1" fill="#009ff9" fill-opacity="1"></use><g><use xlink:href="#desiGmGkL" opacity="1" fill-opacity="0" stroke="#000000" stroke-width="1" stroke-opacity="0"></use></g></g><g><use xlink:href="#avBZc7xkA" opacity="1" fill="#009ff9" fill-opacity="1"></use><g><use xlink:href="#avBZc7xkA" opacity="1" fill-opacity="0" stroke="#000000" stroke-width="1" stroke-opacity="0"></use></g></g><g><use xlink:href="#a2MVsjZ8Pu" opacity="1" fill="#ffcea9" fill-opacity="1"></use><g><use xlink:href="#a2MVsjZ8Pu" opacity="1" fill-opacity="0" stroke="#000000" stroke-width="1" stroke-opacity="0"></use></g></g><g><use xlink:href="#a5FwlGKRW5" opacity="1" fill="#f4f4f4" fill-opacity="1"></use><g><use xlink:href="#a5FwlGKRW5" opacity="1" fill-opacity="0" stroke="#000000" stroke-width="1" stroke-opacity="0"></use></g></g><g><use xlink:href="#a1AtlvZnlo" opacity="1" fill="#ffcea9" fill-opacity="1"></use><g><use xlink:href="#a1AtlvZnlo" opacity="1" fill-opacity="0" stroke="#000000" stroke-width="1" stroke-opacity="0"></use></g></g><g><use xlink:href="#a4jM0cmGE" opacity="1" fill="#ededed" fill-opacity="1"></use><g><use xlink:href="#a4jM0cmGE" opacity="1" fill-opacity="0" stroke="#000000" stroke-width="1" stroke-opacity="0"></use></g></g><g><use xlink:href="#a2TyxohLhh" opacity="1" fill="#3a2c6d" fill-opacity="1"></use><g><use xlink:href="#a2TyxohLhh" opacity="1" fill-opacity="0" stroke="#000000" stroke-width="1" stroke-opacity="0"></use></g></g><g><use xlink:href="#aAlCC0yZd" opacity="1" fill="#d6d8e5" fill-opacity="1"></use><g><use xlink:href="#aAlCC0yZd" opacity="1" fill-opacity="0" stroke="#000000" stroke-width="1" stroke-opacity="0"></use></g></g><g><use xlink:href="#bzJVdPLjt" opacity="1" fill="#d6d8e5" fill-opacity="1"></use><g><use xlink:href="#bzJVdPLjt" opacity="1" fill-opacity="0" stroke="#000000" stroke-width="1" stroke-opacity="0"></use></g></g><g><use xlink:href="#ac0creEtU" opacity="1" fill="#d6d8e5" fill-opacity="1"></use><g><use xlink:href="#ac0creEtU" opacity="1" fill-opacity="0" stroke="#000000" stroke-width="1" stroke-opacity="0"></use></g></g><g><use xlink:href="#j1OPB35wye" opacity="1" fill="#e4e6ef" fill-opacity="1"></use><g><use xlink:href="#j1OPB35wye" opacity="1" fill-opacity="0" stroke="#000000" stroke-width="1" stroke-opacity="0"></use></g></g><g><use xlink:href="#cn0xWZc8f" opacity="1" fill="#28221c" fill-opacity="1"></use><g><use xlink:href="#cn0xWZc8f" opacity="1" fill-opacity="0" stroke="#000000" stroke-width="1" stroke-opacity="0"></use></g></g><g><use xlink:href="#aU7dBPxPl" opacity="1" fill="#99b524" fill-opacity="1"></use><g><use xlink:href="#aU7dBPxPl" opacity="1" fill-opacity="0" stroke="#000000" stroke-width="1" stroke-opacity="0"></use></g></g><g><use xlink:href="#a3f5JPnEW6" opacity="1" fill="#a6ce28" fill-opacity="1"></use><g><use xlink:href="#a3f5JPnEW6" opacity="1" fill-opacity="0" stroke="#000000" stroke-width="1" stroke-opacity="0"></use></g></g><g><use xlink:href="#ciC5B2zBr" opacity="1" fill="#a6ce28" fill-opacity="1"></use><g><use xlink:href="#ciC5B2zBr" opacity="1" fill-opacity="0" stroke="#000000" stroke-width="1" stroke-opacity="0"></use></g></g><g><use xlink:href="#aEcCnipSK" opacity="1" fill="#d6d8e5" fill-opacity="1"></use><g><use xlink:href="#aEcCnipSK" opacity="1" fill-opacity="0" stroke="#000000" stroke-width="1" stroke-opacity="0"></use></g></g><g><use xlink:href="#eiHtR12lF" opacity="1" fill="#d9dce8" fill-opacity="1"></use><g><use xlink:href="#eiHtR12lF" opacity="1" fill-opacity="0" stroke="#000000" stroke-width="1" stroke-opacity="0"></use></g></g><g><use xlink:href="#b1AmjQTWpI" opacity="1" fill="#d9dce8" fill-opacity="1"></use><g><use xlink:href="#b1AmjQTWpI" opacity="1" fill-opacity="0" stroke="#000000" stroke-width="1" stroke-opacity="0"></use></g></g><g><use xlink:href="#b64WI8iId" opacity="1" fill="#d9dce8" fill-opacity="1"></use><g><use xlink:href="#b64WI8iId" opacity="1" fill-opacity="0" stroke="#000000" stroke-width="1" stroke-opacity="0"></use></g></g><g><use xlink:href="#a1oVYjwPsy" opacity="1" fill="#eff1f9" fill-opacity="1"></use><g><use xlink:href="#a1oVYjwPsy" opacity="1" fill-opacity="0" stroke="#000000" stroke-width="1" stroke-opacity="0"></use></g></g><g><use xlink:href="#ayU6fT5aP" opacity="1" fill="#d3d6e2" fill-opacity="1"></use><g><use xlink:href="#ayU6fT5aP" opacity="1" fill-opacity="0" stroke="#000000" stroke-width="1" stroke-opacity="0"></use></g></g><g><use xlink:href="#anqmIZrCQ" opacity="1" fill="#c5c8d3" fill-opacity="1"></use><g><use xlink:href="#anqmIZrCQ" opacity="1" fill-opacity="0" stroke="#000000" stroke-width="1" stroke-opacity="0"></use></g></g><g><use xlink:href="#dBMaeuUrZ" opacity="1" fill="#d6d8e5" fill-opacity="1"></use><g><use xlink:href="#dBMaeuUrZ" opacity="1" fill-opacity="0" stroke="#000000" stroke-width="1" stroke-opacity="0"></use></g></g><g><use xlink:href="#bAaUbBDs" opacity="1" fill="#d9dce8" fill-opacity="1"></use><g><use xlink:href="#bAaUbBDs" opacity="1" fill-opacity="0" stroke="#000000" stroke-width="1" stroke-opacity="0"></use></g></g><g><use xlink:href="#b97uC8wMz" opacity="1" fill="#d9dce8" fill-opacity="1"></use><g><use xlink:href="#b97uC8wMz" opacity="1" fill-opacity="0" stroke="#000000" stroke-width="1" stroke-opacity="0"></use></g></g><g><use xlink:href="#a52L1nHmuk" opacity="1" fill="#d9dce8" fill-opacity="1"></use><g><use xlink:href="#a52L1nHmuk" opacity="1" fill-opacity="0" stroke="#000000" stroke-width="1" stroke-opacity="0"></use></g></g><g><use xlink:href="#bstBQNlrN" opacity="1" fill="#eff1f9" fill-opacity="1"></use><g><use xlink:href="#bstBQNlrN" opacity="1" fill-opacity="0" stroke="#000000" stroke-width="1" stroke-opacity="0"></use></g></g><g><use xlink:href="#a223zpaDPr" opacity="1" fill="#d3d6e2" fill-opacity="1"></use><g><use xlink:href="#a223zpaDPr" opacity="1" fill-opacity="0" stroke="#000000" stroke-width="1" stroke-opacity="0"></use></g></g><g><use xlink:href="#gp9EW2en6" opacity="1" fill="#c5c8d3" fill-opacity="1"></use><g><use xlink:href="#gp9EW2en6" opacity="1" fill-opacity="0" stroke="#000000" stroke-width="1" stroke-opacity="0"></use></g></g><g><use xlink:href="#d1zZ2gDoiZ" opacity="1" fill="#d6d8e5" fill-opacity="1"></use><g><use xlink:href="#d1zZ2gDoiZ" opacity="1" fill-opacity="0" stroke="#000000" stroke-width="1" stroke-opacity="0"></use></g></g><g><use xlink:href="#a1l8YudTxD" opacity="1" fill="#d9dce8" fill-opacity="1"></use><g><use xlink:href="#a1l8YudTxD" opacity="1" fill-opacity="0" stroke="#000000" stroke-width="1" stroke-opacity="0"></use></g></g><g><use xlink:href="#fqaROkhKl" opacity="1" fill="#d9dce8" fill-opacity="1"></use><g><use xlink:href="#fqaROkhKl" opacity="1" fill-opacity="0" stroke="#000000" stroke-width="1" stroke-opacity="0"></use></g></g><g><use xlink:href="#b4ZOZpprH" opacity="1" fill="#d9dce8" fill-opacity="1"></use><g><use xlink:href="#b4ZOZpprH" opacity="1" fill-opacity="0" stroke="#000000" stroke-width="1" stroke-opacity="0"></use></g></g><g><use xlink:href="#bk3om4ytR" opacity="1" fill="#eff1f9" fill-opacity="1"></use><g><use xlink:href="#bk3om4ytR" opacity="1" fill-opacity="0" stroke="#000000" stroke-width="1" stroke-opacity="0"></use></g></g><g><use xlink:href="#ajJRPfsS" opacity="1" fill="#d3d6e2" fill-opacity="1"></use><g><use xlink:href="#ajJRPfsS" opacity="1" fill-opacity="0" stroke="#000000" stroke-width="1" stroke-opacity="0"></use></g></g><g><use xlink:href="#b8oVzy6Njd" opacity="1" fill="#c5c8d3" fill-opacity="1"></use><g><use xlink:href="#b8oVzy6Njd" opacity="1" fill-opacity="0" stroke="#000000" stroke-width="1" stroke-opacity="0"></use></g></g></g></g></svg>